:SAMPLES-PER-SECOND 30
:FULLY-SPECIFIED
:DEGREES
456
root  -19.261 34.2729 -15.0019 -173.109 1.54215 177.583
RightUpLeg  -15.1938 -12.3985 -13.3863
RightLeg  14.9497 -2.63302 -0.524079
RightFoot  3.17767 0.0136952 0.0406501
RightToes  -22.0082 -0.0929345 -0.19277
Spine  -0.363639 -0.638064 1.10785
Spine1  -0.774312 -1.2442 2.86218
HEad  -34.2727 -5.98847 9.97551
LeftShoulder1  -1.94126e-019 -3.10601e-018 -2.51263e-017
LeftArm  0.885295 18.7548 -81.0978
LeftForeArm  31.8897 -37.4321 -6.62596
LeftHand  -0.384482 -1.96961 6.25409
RightShoulder  -4.96962e-017 0 -2.36833e-017
RightArm  -27.4046 -22.459 77.834
RightForeArm  53.872 15.3213 1.13838
RightHand  -0.256122 -2.33607 -9.4315
LeftUpLeg  -9.74679 10.2056 -6.88962
LeftLeg  16.4507 21.7752 4.80333
LeftFoot  -5.13208 -0.0950828 -1.95981
LeftToes  -3.55001 1.46665e-006 1.03344e-007
457
root  -19.5483 34.3713 -15.1382 -172.627 -2.06288 177.847
RightUpLeg  -16.1177 -10.1588 -11.4735
RightLeg  15.3704 -1.14575 -0.237045
RightFoot  3.46184 0.0106197 0.101431
RightToes  -23.3961 -0.101189 -0.203551
Spine  -0.563395 -0.742173 0.705018
Spine1  -1.1751 -1.41784 2.06492
HEad  -34.4975 -8.04511 10.4604
LeftShoulder1  -1.94126e-019 -3.10601e-018 -2.51263e-017
LeftArm  -7.57955 17.6637 -80.6711
LeftForeArm  32.1237 -28.2203 -4.49802
LeftHand  -0.396766 -0.620738 7.77464
RightShoulder  -4.96962e-017 0 -2.36833e-017
RightArm  -24.1751 -21.8164 78.1969
RightForeArm  53.0011 17.2262 1.17331
RightHand  -0.295777 -1.75562 -9.26924
LeftUpLeg  -8.66935 8.73316 -6.81251
LeftLeg  13.4315 19.8483 3.33704
LeftFoot  -4.21993 -0.0574763 -1.39839
LeftToes  -3.5722 1.46665e-006 1.03344e-007
458
root  -19.8151 34.4439 -15.229 -171.985 -5.47815 178.134
RightUpLeg  -17.7973 -8.95265 -9.28101
RightLeg  16.463 -0.0553033 -0.0130485
RightFoot  3.58935 0.00660586 0.154822
RightToes  -20.9766 -0.0869696 -0.184628
Spine  -0.692763 -0.888965 0.345653
Spine1  -1.43228 -1.70749 1.37999
HEad  -35.2379 -9.69799 10.6387
LeftShoulder1  -1.94126e-019 -3.10601e-018 -2.51263e-017
LeftArm  -18.6116 16.4303 -79.3924
LeftForeArm  33.0899 -19.4823 -3.42519
LeftHand  -0.414985 1.09172 11.1799
RightShoulder  -4.96962e-017 0 -2.36833e-017
RightArm  -22.2674 -21.0162 78.0459
RightForeArm  51.416 19.2878 1.60482
RightHand  -0.303148 -1.84446 -9.73506
LeftUpLeg  -8.01411 6.91208 -6.71241
LeftLeg  10.9529 18.3423 2.29782
LeftFoot  -3.43482 -0.0347089 -0.996004
LeftToes  -4.35374 1.46665e-006 1.03344e-007
459
root  -20.0403 34.4674 -15.3161 -171.465 -8.31199 178.247
RightUpLeg  -20.1086 -7.61975 -7.30857
RightLeg  18.5935 0.341133 0.0894254
RightFoot  3.44012 0.00402931 0.173758
RightToes  -18.6295 -0.0739511 -0.165712
Spine  -0.609255 -0.899645 -0.0172309
Spine1  -1.26379 -1.74122 0.674409
HEad  -36.5579 -11.0862 10.7523
LeftShoulder1  -1.94126e-019 -3.10601e-018 -2.51263e-017
LeftArm  -26.6842 15.3529 -77.0158
LeftForeArm  31.6593 -12.6213 -2.24587
LeftHand  -0.280864 2.93447 12.93
RightShoulder  -4.96962e-017 0 -2.36833e-017
RightArm  -21.0224 -20.5115 77.6107
RightForeArm  50.0585 23.524 2.47087
RightHand  -0.297255 -1.64077 -9.04433
LeftUpLeg  -7.53204 5.70015 -6.71756
LeftLeg  9.16438 16.823 1.58995
LeftFoot  -3.08937 -0.0254874 -0.783579
LeftToes  -4.95356 1.46665e-006 1.03344e-007
460
root  -20.2557 34.4605 -15.4721 -171.29 -10.8023 178.091
RightUpLeg  -22.4668 -9.04715 -5.02111
RightLeg  20.9698 -1.29923 -0.406834
RightFoot  3.37549 0.0087939 0.0807568
RightToes  -22.354 -0.0949661 -0.195474
Spine  -0.295046 -0.888564 -0.419451
Spine1  -0.639158 -1.72433 -0.133163
HEad  -37.7877 -11.9943 10.5555
LeftShoulder1  -1.94126e-019 -3.10601e-018 -2.51263e-017
LeftArm  -29.8278 15.126 -73.9188
LeftForeArm  28.1663 -8.31972 -1.46532
LeftHand  -0.240412 3.59604 15.0176
RightShoulder  -4.96962e-017 0 -2.36833e-017
RightArm  -20.2069 -19.738 77.1312
RightForeArm  49.5334 27.0547 3.20955
RightHand  -0.317368 -1.50731 -9.35473
LeftUpLeg  -6.78544 5.20025 -6.87257
LeftLeg  7.94278 15.0259 1.10549
LeftFoot  -3.01038 -0.0214158 -0.653453
LeftToes  -6.29003 1.46665e-006 1.03344e-007
461
root  -20.4383 34.4717 -15.6955 -171.103 -13.3316 178.419
RightUpLeg  -24.4492 -11.2946 -1.8982
RightLeg  21.8095 -3.4527 -1.13214
RightFoot  3.74524 0.0172432 -0.0650681
RightToes  -22.1695 -0.09388 -0.194032
Spine  -0.0351281 -0.927335 -0.63958
Spine1  -0.127225 -1.80921 -0.564808
HEad  -38.274 -12.4289 9.90715
LeftShoulder1  -1.94126e-019 -3.10601e-018 -2.51263e-017
LeftArm  -30.1157 15.9514 -70.9667
LeftForeArm  26.7917 -6.25511 -1.09783
LeftHand  -0.224229 3.61798 14.1027
RightShoulder  -4.96962e-017 0 -2.36833e-017
RightArm  -19.2994 -19.0124 76.3937
RightForeArm  48.8013 29.215 3.70073
RightHand  -0.298155 -1.8928 -9.69672
LeftUpLeg  -6.41385 4.19546 -6.48527
LeftLeg  7.52514 13.6236 0.905517
LeftFoot  -3.15728 -0.0211035 -0.604191
LeftToes  -8.01837 1.46665e-006 1.03344e-007
462
root  -20.6206 34.4811 -15.9576 -170.677 -15.437 178.861
RightUpLeg  -26.6834 -12.7089 1.34546
RightLeg  21.9087 -5.6532 -1.85998
RightFoot  4.02453 0.0278131 -0.234501
RightToes  -21.2203 -0.0883207 -0.186378
Spine  0.136576 -0.870318 -0.801143
Spine1  0.213072 -1.69718 -0.871816
HEad  -38.3021 -12.595 9.24852
LeftShoulder1  -1.94126e-019 -3.10601e-018 -2.51263e-017
LeftArm  -28.0215 17.6946 -68.3728
LeftForeArm  28.0753 -6.77614 -1.18758
LeftHand  -0.270245 2.97165 12.6048
RightShoulder  -4.96962e-017 0 -2.36833e-017
RightArm  -19.2954 -18.408 75.736
RightForeArm  48.4511 30.3095 3.95661
RightHand  -0.290317 -2.01231 -9.75372
LeftUpLeg  -6.41127 3.09848 -6.01894
LeftLeg  7.40441 12.7937 0.824419
LeftFoot  -3.50351 -0.0240944 -0.626273
LeftToes  -9.2967 1.46665e-006 1.03344e-007
463
root  -20.8145 34.466 -16.2964 -170.209 -17.2728 179.248
RightUpLeg  -28.8772 -13.7842 4.51888
RightLeg  21.4613 -7.21867 -2.30861
RightFoot  4.34581 0.0367869 -0.38647
RightToes  -20.3455 -0.0833931 -0.179594
Spine  0.284774 -0.778022 -0.918554
Spine1  0.513986 -1.50859 -1.09641
HEad  -38.1306 -12.6114 8.48225
LeftShoulder1  -1.94126e-019 -3.10601e-018 -2.51263e-017
LeftArm  -24.9002 19.8638 -66.2614
LeftForeArm  30.4425 -7.96909 -1.39606
LeftHand  -0.32159 2.26457 11.7419
RightShoulder  -4.96962e-017 0 -2.36833e-017
RightArm  -19.5069 -18.2049 75.0691
RightForeArm  48.1697 31.0651 4.13835
RightHand  -0.283204 -2.00618 -9.48986
LeftUpLeg  -6.40029 2.11358 -5.58678
LeftLeg  7.46305 12.1852 0.798193
LeftFoot  -4.06234 -0.0305631 -0.700216
LeftToes  -10.2395 1.46665e-006 1.03344e-007
464
root  -21.0355 34.4137 -16.6972 -169.813 -19.2087 179.385
RightUpLeg  -30.9829 -15.3182 7.44135
RightLeg  20.7652 -7.36418 -2.25651
RightFoot  4.52416 0.0391738 -0.42331
RightToes  -20.6008 -0.084833 -0.181635
Spine  0.483084 -0.749348 -1.04363
Spine1  0.919627 -1.44248 -1.34558
HEad  -38.1302 -12.6578 8.01728
LeftShoulder1  -1.94126e-019 -3.10601e-018 -2.51263e-017
LeftArm  -22.0767 22.1043 -64.5871
LeftForeArm  31.9563 -9.43118 -1.65491
LeftHand  -0.351925 1.80766 11.2791
RightShoulder  -4.96962e-017 0 -2.36833e-017
RightArm  -19.6794 -18.3725 74.507
RightForeArm  47.8682 31.5366 4.25857
RightHand  -0.274141 -2.1294 -9.50744
LeftUpLeg  -6.28567 0.837185 -5.36367
LeftLeg  7.79794 11.6617 0.8323
LeftFoot  -4.76426 -0.0399804 -0.799508
LeftToes  -10.8061 1.46665e-006 1.03344e-007
465
root  -21.2791 34.3358 -17.1561 -169.175 -21.4744 179.478
RightUpLeg  -33.0241 -16.6903 9.95989
RightLeg  19.4403 -5.72805 -1.61394
RightFoot  4.85933 0.037974 -0.334457
RightToes  -21.1546 -0.087988 -0.18604
Spine  0.539048 -0.71159 -1.10601
Spine1  1.04373 -1.36079 -1.46993
HEad  -38.0011 -13.189 7.6259
LeftShoulder1  -1.94126e-019 -3.10601e-018 -2.51263e-017
LeftArm  -19.3334 24.1088 -63.3296
LeftForeArm  31.4451 -10.5228 -1.83526
LeftHand  -0.360868 1.47573 10.6209
RightShoulder  -4.96962e-017 0 -2.36833e-017
RightArm  -20.308 -19.2204 74.0672
RightForeArm  47.7507 31.2899 4.20657
RightHand  -0.271198 -2.07721 -9.52313
LeftUpLeg  -6.41681 -0.454522 -5.11044
LeftLeg  8.32961 10.8451 0.875202
LeftFoot  -5.75964 -0.0541649 -0.915169
LeftToes  -10.6733 1.46665e-006 1.03344e-007
